<?xml version="1.0" encoding="UTF-8"?>
<svg xmlns="http://www.w3.org/2000/svg" id="a" viewBox="0 0 1785.646 1317.6559">
  <defs>
    <style>.c{fill:#f60;}.c,.d{stroke-width:0px;}.d{fill:#003e60;}</style>
  </defs>
  <g id="b">
    <path class="d" d="m1212.7272,711.0811v605.6003h-131.8344v-446.9415l-2.3418-.648c-1.4338,3.4233-3.0086,6.795-4.281,10.2773-32.674,89.4262-65.3201,178.8625-97.9626,268.3002-19.5171,53.4752-39.0151,106.9574-58.5337,160.4321-3.3768,9.2518-3.404,9.2942-13.5192,9.311-21.3252.0354-42.6505.0287-63.9757-.0118-2.9599-.0056-5.9194-.3014-9.6482-.5049-54.5788-149.4008-109.1127-298.6785-163.6467-447.9562-.8038.1219-1.6077.2438-2.4114.3656-.6231,16.33-.2001,32.696-.2766,49.0416-.078,16.6614-.0172,33.3235-.0172,49.9853v297.9126c0,16.5797,0,33.1594,0,50.4509h-130.3563c-1.9615-7.512-2.5549-591.5019-.6925-604.5043,7.2076-2.1027,174.7294-2.7302,188.2576-.5381,49.6885,132.4638,99.5563,265.4054,149.4242,398.3471.7263.1009,1.4525.202,2.1787.303,1.3072-3.1469,2.7065-6.2592,3.9081-9.4459,33.1229-87.8412,66.2334-175.6871,99.3283-263.5388,14.7873-39.2531,29.5271-78.524,44.3096-117.7788,3.3789-8.9723,3.4189-9.0538,12.7229-9.0589,56.6452-.0316,113.2903-.024,169.9355.009,2.9324.0017,5.8646.3583,9.4325.5911Z"></path>
    <path class="c" d="m1072.376,607.5242c1.7567-.6636,3.5028-1.3572,5.2717-1.9866,51.6061-18.3622,81.9669-55.2044,92.7568-108.2658,2.8308-13.9217,3.7987-28.4128,3.931-42.6582.4614-49.6436-1.6503-99.3753.5445-148.926,5.4629-123.3365,61.0045-216.5283,171.6579-274.3272,33.6249-17.5637,69.9233-26.5078,107.8171-30.0562,150.7539-14.1165,291.8509,87.7324,324.2933,238.9448,34.8822,162.584-64.2163,316.1802-217.7507,358.126-25.4414,6.9505-51.3753,10.3344-77.8642,10.2952-133.6037-.1977-267.2077-.0904-400.8117-.0901-3.2146.0001-6.4292.0001-9.6438.0001-.0672-.3521-.1346-.7041-.202-1.0562Zm408.4724-505.2445c-105.3387-1.7655-202.826,84.9923-203.0243,202.2349-.1944,114.905,93.8164,203.3033,203.406,203.1967,106.1383-.1032,202.6845-84.9226,202.482-203.0669-.2083-121.5543-101.1927-204.2989-202.8637-202.3648Z"></path>
    <path class="d" d="m476.0111,711.8283v116.2606h-169.0823c-1.1095,1.3251-1.3332,1.573-1.5345,1.8381-.1971.2596-.4218.516-.5418.8114-.1227.3022-.1507.6479-.1886.9784-.0759.6605-.137,1.3229-.1907,1.9855-.0269.3317-.029.6656-.0339.9987-.0096.6663-.0162,1.3327-.019,1.9991-.0042.9996-.0054,1.9992-.0055,2.9988-.0056,156.9357-.0109,313.8713-.0168,470.807,0,.3332.0007.6667-.0144.9993-.0302.6652-.0589,1.3307-.1128,1.9942-.0269.3307-.0897.6616-.1698.9841-.0778.3135-.1984.6163-.3002.9238-6.8016,2.4524-117.0486,3.206-131.0993.6996-.1708-4.2844-.5094-8.8262-.5102-13.3679-.0276-153.2705-.019-306.5411-.0426-459.8116-.0007-4.5606-.2898-9.1211-.4736-14.5401H2.3102c-2.4539-7.9346-3.1486-102.5546-1.1265-116.121,7.2126-2.2303,462.3999-2.8091,474.8273-.438Z"></path>
    <path class="d" d="m1566.2451,1316.7811h-132.35v-487.5879c-11.9516-1.5929-22.8442-.6507-33.667-.8187-10.9889-.1707-21.9827-.0377-32.9743-.0377h-98.3646v-116.2201c7.7334-1.9776,452.4291-2.7327,467.4182-.8721,2.1534,6.9385,2.9776,98.1229.9102,116.5022-10.8973,1.2853-22.1092.3945-33.2543.554-11.3224.1622-22.649.0359-33.9737.0359h-103.7443v488.4444Z"></path>
  </g>
</svg>
